<?xml version="1.0" encoding="UTF-8" standalone="no"?>
<svg xmlns:svg="http://www.w3.org/2000/svg" xmlns="http://www.w3.org/2000/svg" version="1.0" width="20cm" height="20cm" viewBox="0 0 1 1">
  <g transform="matrix(0.00650592,0,0,0.00650592,0.5,0.5)">
    <circle cx="-26.307013" cy="10.934897" r="0.40000001"/>
    <circle cx="-19.948498" cy="28.271284" r="0.40000001"/>
    <circle cx="-21.59606" cy="34.257599" r="0.40000001"/>
    <circle cx="-42.1968" cy="10.776752" r="0.40000001"/>
    <circle cx="-29.240303" cy="25.904751" r="0.40000001"/>
    <circle cx="-26.182911" cy="18.495512" r="0.40000001"/>
    <circle cx="-21.263113" cy="13.604709" r="0.40000001"/>
    <circle cx="-19.269482" cy="24.083124" r="0.40000001"/>
    <circle cx="-20.294113" cy="20.764744" r="0.40000001"/>
    <circle cx="-30.313948" cy="39.513199" r="0.40000001"/>
    <circle cx="-36.744625" cy="19.931984" r="0.40000001"/>
    <circle cx="-35.932758" cy="24.985756" r="0.40000001"/>
    <circle cx="-30.138561" cy="25.894144" r="0.40000001"/>
    <circle cx="-30.630354" cy="24.793934" r="0.40000001"/>
    <circle cx="-18.635622" cy="33.863018" r="0.40000001"/>
    <circle cx="-18.71702" cy="15.581398" r="0.40000001"/>
    <circle cx="-25.768124" cy="31.473022" r="0.40000001"/>
    <circle cx="-28.391514" cy="20.674776" r="0.40000001"/>
    <circle cx="-30.561186" cy="17.011562" r="0.40000001"/>
    <circle cx="-13.945436" cy="25.310041" r="0.40000001"/>
    <circle cx="-20.59465" cy="26.318945" r="0.40000001"/>
    <circle cx="-15.489001" cy="20.525637" r="0.40000001"/>
    <circle cx="-36.408974" cy="18.447571" r="0.40000001"/>
    <circle cx="-22.098381" cy="26.186728" r="0.40000001"/>
    <circle cx="-22.624369" cy="24.564812" r="0.40000001"/>
    <circle cx="-31.49297" cy="21.402082" r="0.40000001"/>
    <circle cx="-26.369003" cy="6.4112101" r="0.40000001"/>
    <circle cx="-12.640058" cy="13.840567" r="0.40000001"/>
    <circle cx="-21.548687" cy="9.2428379" r="0.40000001"/>
    <circle cx="-32.18605" cy="14.390295" r="0.40000001"/>
    <circle cx="-25.519592" cy="12.464885" r="0.40000001"/>
    <circle cx="-30.769547" cy="14.102656" r="0.40000001"/>
    <circle cx="-17.986706" cy="17.33556" r="0.40000001"/>
    <circle cx="-21.43046" cy="24.674335" r="0.40000001"/>
    <circle cx="-40.44228" cy="25.147453" r="0.40000001"/>
    <circle cx="-30.137669" cy="18.487587" r="0.40000001"/>
    <circle cx="-25.551657" cy="37.754303" r="0.40000001"/>
    <circle cx="-30.215673" cy="23.548946" r="0.40000001"/>
    <circle cx="-10.014048" cy="24.273777" r="0.40000001"/>
    <circle cx="-28.790613" cy="38.369843" r="0.40000001"/>
    <circle cx="-48.940647" cy="11.732281" r="0.40000001"/>
    <circle cx="-29.319002" cy="27.964819" r="0.40000001"/>
    <circle cx="-12.973725" cy="34.037479" r="0.40000001"/>
    <circle cx="-19.867876" cy="35.856556" r="0.40000001"/>
    <circle cx="-25.87397" cy="24.010757" r="0.40000001"/>
    <circle cx="-12.234374" cy="45.946693" r="0.40000001"/>
    <circle cx="-20.557472" cy="21.523752" r="0.40000001"/>
    <circle cx="-17.690723" cy="23.225685" r="0.40000001"/>
    <circle cx="-19.029142" cy="44.664261" r="0.40000001"/>
    <circle cx="-32.913803" cy="32.902199" r="0.40000001"/>
    <circle cx="-17.720856" cy="33.620625" r="0.40000001"/>
    <circle cx="-7.4691086" cy="35.77853" r="0.40000001"/>
    <circle cx="-24.101797" cy="28.819397" r="0.40000001"/>
    <circle cx="-31.122459" cy="40.134083" r="0.40000001"/>
    <circle cx="-20.361481" cy="30.171616" r="0.40000001"/>
    <circle cx="-23.113401" cy="24.975666" r="0.40000001"/>
    <circle cx="-21.310246" cy="21.458138" r="0.40000001"/>
    <circle cx="-21.909258" cy="11.204049" r="0.40000001"/>
    <circle cx="-36.475487" cy="29.086788" r="0.40000001"/>
    <circle cx="-30.994843" cy="14.035845" r="0.40000001"/>
    <circle cx="-28.419237" cy="0.95203573" r="0.40000001"/>
    <circle cx="-24.79793" cy="27.666042" r="0.40000001"/>
    <circle cx="-17.560665" cy="16.831917" r="0.40000001"/>
    <circle cx="-15.134361" cy="20.689981" r="0.40000001"/>
    <circle cx="-11.043871" cy="16.257721" r="0.40000001"/>
    <circle cx="-17.019228" cy="32.61586" r="0.40000001"/>
    <circle cx="-17.706079" cy="20.426561" r="0.40000001"/>
    <circle cx="-37.110619" cy="34.932037" r="0.40000001"/>
    <circle cx="-30.136759" cy="29.486219" r="0.40000001"/>
    <circle cx="-42.218643" cy="12.656202" r="0.40000001"/>
    <circle cx="-23.110203" cy="10.795792" r="0.40000001"/>
    <circle cx="-22.359306" cy="6.4802842" r="0.40000001"/>
    <circle cx="-20.470676" cy="24.189491" r="0.40000001"/>
    <circle cx="-24.83584" cy="50.654129" r="0.40000001"/>
    <circle cx="-18.474495" cy="26.86113" r="0.40000001"/>
    <circle cx="-19.854073" cy="22.652119" r="0.40000001"/>
    <circle cx="-22.534195" cy="8.2981892" r="0.40000001"/>
    <circle cx="-18.798691" cy="28.264301" r="0.40000001"/>
    <circle cx="-27.481045" cy="27.218361" r="0.40000001"/>
    <circle cx="-13.065774" cy="21.095108" r="0.40000001"/>
    <circle cx="-33.97897" cy="28.486797" r="0.40000001"/>
    <circle cx="-15.58169" cy="32.046032" r="0.40000001"/>
    <circle cx="-3.4125803" cy="26.622986" r="0.40000001"/>
    <circle cx="-32.676353" cy="22.935905" r="0.40000001"/>
    <circle cx="-26.666935" cy="26.012276" r="0.40000001"/>
    <circle cx="-31.814926" cy="27.803411" r="0.40000001"/>
    <circle cx="-43.034698" cy="29.024351" r="0.40000001"/>
    <circle cx="-17.066076" cy="32.050842" r="0.40000001"/>
    <circle cx="-12.96873" cy="21.340776" r="0.40000001"/>
    <circle cx="-26.101719" cy="36.154118" r="0.40000001"/>
    <circle cx="-28.409676" cy="24.150187" r="0.40000001"/>
    <circle cx="-12.885509" cy="27.623444" r="0.40000001"/>
    <circle cx="-22.636814" cy="18.758751" r="0.40000001"/>
    <circle cx="-22.226902" cy="18.769983" r="0.40000001"/>
    <circle cx="-15.443627" cy="28.530607" r="0.40000001"/>
    <circle cx="-28.167343" cy="23.454628" r="0.40000001"/>
    <circle cx="-23.163658" cy="26.364313" r="0.40000001"/>
    <circle cx="-34.015091" cy="44.378689" r="0.40000001"/>
    <circle cx="-28.317801" cy="34.622982" r="0.40000001"/>
    <circle cx="-19.050596" cy="34.624825" r="0.40000001"/>
    <circle cx="28.188847" cy="-27.832184" r="0.40000001"/>
    <circle cx="32.965828" cy="-30.01153" r="0.40000001"/>
    <circle cx="20.107449" cy="-23.653336" r="0.40000001"/>
    <circle cx="38.550129" cy="-25.023306" r="0.40000001"/>
    <circle cx="29.00049" cy="-31.320293" r="0.40000001"/>
    <circle cx="22.451981" cy="-27.670254" r="0.40000001"/>
    <circle cx="25.97644" cy="-37.854641" r="0.40000001"/>
    <circle cx="32.425777" cy="-17.417395" r="0.40000001"/>
    <circle cx="24.686188" cy="-23.011913" r="0.40000001"/>
    <circle cx="20.105259" cy="-32.813122" r="0.40000001"/>
    <circle cx="31.770159" cy="-24.184494" r="0.40000001"/>
    <circle cx="31.619078" cy="-36.479641" r="0.40000001"/>
    <circle cx="25.799713" cy="-25.481491" r="0.40000001"/>
    <circle cx="24.163645" cy="-18.9548" r="0.40000001"/>
    <circle cx="29.218952" cy="-38.209263" r="0.40000001"/>
    <circle cx="32.324963" cy="-30.968445" r="0.40000001"/>
    <circle cx="27.356153" cy="-20.31118" r="0.40000001"/>
    <circle cx="35.019588" cy="-27.979097" r="0.40000001"/>
    <circle cx="37.103279" cy="-19.261805" r="0.40000001"/>
    <circle cx="25.005793" cy="-35.756672" r="0.40000001"/>
    <circle cx="28.30711" cy="-9.8697977" r="0.40000001"/>
    <circle cx="21.39327" cy="-23.444164" r="0.40000001"/>
    <circle cx="40.778526" cy="-38.889164" r="0.40000001"/>
    <circle cx="22.237373" cy="-18.57966" r="0.40000001"/>
    <circle cx="22.440628" cy="-31.597557" r="0.40000001"/>
    <circle cx="24.317411" cy="-20.316107" r="0.40000001"/>
    <circle cx="34.123684" cy="-33.838253" r="0.40000001"/>
    <circle cx="22.04892" cy="-24.733345" r="0.40000001"/>
    <circle cx="32.809113" cy="-23.951845" r="0.40000001"/>
    <circle cx="31.65456" cy="-36.233601" r="0.40000001"/>
    <circle cx="28.32147" cy="-35.298912" r="0.40000001"/>
    <circle cx="29.364731" cy="-23.506678" r="0.40000001"/>
    <circle cx="39.44495" cy="-32.116913" r="0.40000001"/>
    <circle cx="35.540237" cy="-24.674822" r="0.40000001"/>
    <circle cx="35.578377" cy="-17.723345" r="0.40000001"/>
    <circle cx="26.032995" cy="-14.836619" r="0.40000001"/>
    <circle cx="28.364788" cy="-33.110516" r="0.40000001"/>
    <circle cx="24.056389" cy="-19.64399" r="0.40000001"/>
    <circle cx="36.013821" cy="-34.705738" r="0.40000001"/>
    <circle cx="27.620491" cy="-28.288002" r="0.40000001"/>
    <circle cx="32.493824" cy="-20.265217" r="0.40000001"/>
    <circle cx="31.840569" cy="-33.12986" r="0.40000001"/>
    <circle cx="17.476789" cy="-23.131311" r="0.40000001"/>
    <circle cx="21.120476" cy="-21.857544" r="0.40000001"/>
    <circle cx="29.509659" cy="-23.846512" r="0.40000001"/>
    <circle cx="38.456333" cy="-26.279066" r="0.40000001"/>
    <circle cx="18.263338" cy="-32.094315" r="0.40000001"/>
    <circle cx="19.491287" cy="-21.820654" r="0.40000001"/>
    <circle cx="35.034172" cy="-27.100824" r="0.40000001"/>
    <circle cx="29.779945" cy="-26.209398" r="0.40000001"/>
    <circle cx="25.841101" cy="-27.761612" r="0.40000001"/>
    <circle cx="35.613976" cy="-22.563141" r="0.40000001"/>
    <circle cx="31.315208" cy="-25.859802" r="0.40000001"/>
    <circle cx="21.184641" cy="-21.427839" r="0.40000001"/>
    <circle cx="30.529043" cy="-29.354303" r="0.40000001"/>
    <circle cx="26.771212" cy="-33.57325" r="0.40000001"/>
    <circle cx="30.291437" cy="-24.323492" r="0.40000001"/>
    <circle cx="28.538561" cy="-15.192926" r="0.40000001"/>
    <circle cx="25.271412" cy="-38.354084" r="0.40000001"/>
    <circle cx="27.487156" cy="-34.366611" r="0.40000001"/>
    <circle cx="34.302174" cy="-34.300777" r="0.40000001"/>
    <circle cx="28.576933" cy="-40.53754" r="0.40000001"/>
    <circle cx="24.630188" cy="-26.579676" r="0.40000001"/>
    <circle cx="22.989637" cy="-20.745897" r="0.40000001"/>
    <circle cx="28.186348" cy="-25.714485" r="0.40000001"/>
    <circle cx="29.719858" cy="-19.988701" r="0.40000001"/>
    <circle cx="33.205734" cy="-21.906286" r="0.40000001"/>
    <circle cx="29.97407" cy="-27.873175" r="0.40000001"/>
    <circle cx="39.238552" cy="-26.537315" r="0.40000001"/>
    <circle cx="35.887394" cy="-28.241283" r="0.40000001"/>
    <circle cx="28.351042" cy="-35.980408" r="0.40000001"/>
    <circle cx="25.040989" cy="-14.386997" r="0.40000001"/>
    <circle cx="21.17877" cy="-30.174129" r="0.40000001"/>
    <circle cx="26.049982" cy="-20.532763" r="0.40000001"/>
    <circle cx="35.335918" cy="-18.450495" r="0.40000001"/>
    <circle cx="25.251884" cy="-13.135461" r="0.40000001"/>
    <circle cx="33.250881" cy="-22.532265" r="0.40000001"/>
    <circle cx="30.806496" cy="-35.853527" r="0.40000001"/>
    <circle cx="38.467804" cy="-28.886164" r="0.40000001"/>
    <circle cx="41.870537" cy="-30.946863" r="0.40000001"/>
    <circle cx="31.177969" cy="-32.689342" r="0.40000001"/>
    <circle cx="18.520769" cy="-25.107443" r="0.40000001"/>
    <circle cx="21.598248" cy="-29.944532" r="0.40000001"/>
    <circle cx="40.019272" cy="-32.222309" r="0.40000001"/>
    <circle cx="27.311224" cy="-23.938446" r="0.40000001"/>
    <circle cx="38.711166" cy="-31.674164" r="0.40000001"/>
    <circle cx="26.924225" cy="-18.472538" r="0.40000001"/>
    <circle cx="26.528566" cy="-27.192339" r="0.40000001"/>
    <circle cx="34.060921" cy="-34.626713" r="0.40000001"/>
    <circle cx="37.006824" cy="-25.352043" r="0.40000001"/>
    <circle cx="25.410128" cy="-23.756044" r="0.40000001"/>
    <circle cx="26.355944" cy="-31.289282" r="0.40000001"/>
    <circle cx="30.041777" cy="-34.266151" r="0.40000001"/>
    <circle cx="33.185493" cy="-33.137337" r="0.40000001"/>
    <circle cx="41.960693" cy="-19.967014" r="0.40000001"/>
    <circle cx="22.861418" cy="-23.161097" r="0.40000001"/>
    <circle cx="34.554802" cy="-32.184799" r="0.40000001"/>
    <circle cx="40.869751" cy="-24.770992" r="0.40000001"/>
    <circle cx="26.318552" cy="-27.30711" r="0.40000001"/>
    <circle cx="30.933804" cy="-32.948875" r="0.40000001"/>
    <circle cx="2.6724136" cy="-1.5388303" r="0.40000001"/>
    <circle cx="3.6179006" cy="-6.4038582" r="0.40000001"/>
    <circle cx="0.35855243" cy="-9.4169006" r="0.40000001"/>
    <circle cx="7.7718353" cy="-5.8502221" r="0.40000001"/>
    <circle cx="0.37250829" cy="-1.9790729" r="0.40000001"/>
    <circle cx="5.7866631" cy="-6.9134049" r="0.40000001"/>
    <circle cx="1.6000113" cy="-7.834403" r="0.40000001"/>
    <circle cx="6.6214752" cy="-0.41668895" r="0.40000001"/>
    <circle cx="1.1584611" cy="-5.0272598" r="0.40000001"/>
    <circle cx="5.9137969" cy="-4.7717338" r="0.40000001"/>
    <circle cx="0.61265725" cy="-2.3782866" r="0.40000001"/>
    <circle cx="7.8326373" cy="-5.4361806" r="0.40000001"/>
    <circle cx="4.6724939" cy="-7.1834612" r="0.40000001"/>
    <circle cx="3.0287628" cy="-2.0049112" r="0.40000001"/>
    <circle cx="5.3334837" cy="-1.7359803" r="0.40000001"/>
    <circle cx="3.7289984" cy="-3.9435356" r="0.40000001"/>
    <circle cx="2.1553931" cy="-4.069046" r="0.40000001"/>
    <circle cx="6.6329317" cy="-4.8228703" r="0.40000001"/>
    <circle cx="-0.2699371" cy="-2.1676652" r="0.40000001"/>
    <circle cx="3.7789412" cy="-3.6838169" r="0.40000001"/>
    <circle cx="5.8016105" cy="-4.9555712" r="0.40000001"/>
    <circle cx="0.8063913" cy="-2.2053726" r="0.40000001"/>
    <circle cx="4.9895148" cy="-1.9733205" r="0.40000001"/>
    <circle cx="-0.22387667" cy="-9.5398273" r="0.40000001"/>
    <circle cx="7.6555901" cy="-2.2348328" r="0.40000001"/>
    <circle cx="3.573967" cy="-2.2737401" r="0.40000001"/>
    <circle cx="1.6611048" cy="-8.8076973" r="0.40000001"/>
    <circle cx="1.522761" cy="-4.427289" r="0.40000001"/>
    <circle cx="7.1245699" cy="-7.2187462" r="0.40000001"/>
    <circle cx="1.82368" cy="-5.2735519" r="0.40000001"/>
    <circle cx="-0.29644006" cy="-8.2111721" r="0.40000001"/>
    <circle cx="10.241138" cy="-3.3214149" r="0.40000001"/>
    <circle cx="2.0763927" cy="4.6574659" r="0.40000001"/>
    <circle cx="4.7735114" cy="-3.6239758" r="0.40000001"/>
    <circle cx="-1.0111228" cy="-4.3523865" r="0.40000001"/>
    <circle cx="8.4299793" cy="-6.9265237" r="0.40000001"/>
    <circle cx="0.32879651" cy="-7.7491574" r="0.40000001"/>
    <circle cx="-5.038559" cy="-6.3167005" r="0.40000001"/>
    <circle cx="-0.98839897" cy="-2.5647686" r="0.40000001"/>
    <circle cx="3.5677791" cy="-3.2145236" r="0.40000001"/>
    <circle cx="5.2334776" cy="-3.233161" r="0.40000001"/>
    <circle cx="9.4676237" cy="-1.8296084" r="0.40000001"/>
    <circle cx="10.612247" cy="-2.0861614" r="0.40000001"/>
    <circle cx="2.9269476" cy="-5.0516086" r="0.40000001"/>
    <circle cx="3.5608058" cy="-3.2049122" r="0.40000001"/>
    <circle cx="-1.9956932" cy="-8.2698793" r="0.40000001"/>
    <circle cx="0.71216899" cy="-4.9976196" r="0.40000001"/>
    <circle cx="1.4562072" cy="3.4501765" r="0.40000001"/>
    <circle cx="2.8504429" cy="-9.3254948" r="0.40000001"/>
    <circle cx="5.5477943" cy="-5.5054431" r="0.40000001"/>
    <circle cx="3.8144143" cy="-6.3128252" r="0.40000001"/>
    <circle cx="5.974493" cy="-8.4574862" r="0.40000001"/>
    <circle cx="3.7324438" cy="-3.4163382" r="0.40000001"/>
    <circle cx="1.9121295" cy="-4.3577485" r="0.40000001"/>
    <circle cx="2.1689878" cy="-7.4714437" r="0.40000001"/>
    <circle cx="12.03251" cy="-2.9794116" r="0.40000001"/>
    <circle cx="7.0596828" cy="-8.3026133" r="0.40000001"/>
    <circle cx="5.8019195" cy="-8.5314531" r="0.40000001"/>
    <circle cx="8.7890358" cy="-0.49136817" r="0.40000001"/>
    <circle cx="-2.0856407" cy="-6.2136002" r="0.40000001"/>
    <circle cx="7.2880678" cy="-8.9916372" r="0.40000001"/>
    <circle cx="2.9080799" cy="-3.8122766" r="0.40000001"/>
    <circle cx="7.9406724" cy="-5.7597432" r="0.40000001"/>
    <circle cx="4.3333402" cy="-4.3347864" r="0.40000001"/>
    <circle cx="5.5081477" cy="-2.9758294" r="0.40000001"/>
    <circle cx="2.9796317" cy="-10.030597" r="0.40000001"/>
    <circle cx="4.7101293" cy="-4.0084162" r="0.40000001"/>
    <circle cx="-4.0434046" cy="-1.5024939" r="0.40000001"/>
    <circle cx="-0.75110275" cy="-3.4137771" r="0.40000001"/>
    <circle cx="-1.0959121" cy="-3.9814475" r="0.40000001"/>
    <circle cx="3.9990747" cy="-0.81571448" r="0.40000001"/>
    <circle cx="-0.85167146" cy="-6.3100462" r="0.40000001"/>
    <circle cx="-5.1558461" cy="-3.7536414" r="0.40000001"/>
    <circle cx="-0.92962885" cy="-4.8062892" r="0.40000001"/>
    <circle cx="4.8116622" cy="-2.8344345" r="0.40000001"/>
    <circle cx="4.1462293" cy="-8.8636856" r="0.40000001"/>
    <circle cx="4.5868788" cy="-3.6936443" r="0.40000001"/>
    <circle cx="6.9160624" cy="-0.86574847" r="0.40000001"/>
    <circle cx="5.0352497" cy="-0.64769435" r="0.40000001"/>
    <circle cx="1.558779" cy="-3.5243676" r="0.40000001"/>
    <circle cx="9.7528143" cy="-3.0882649" r="0.40000001"/>
    <circle cx="5.3043985" cy="-9.6010113" r="0.40000001"/>
    <circle cx="2.6494753" cy="2.451205" r="0.40000001"/>
    <circle cx="4.5626802" cy="-3.6477978" r="0.40000001"/>
    <circle cx="5.9481616" cy="-6.4410396" r="0.40000001"/>
    <circle cx="2.1516798" cy="-4.1117821" r="0.40000001"/>
    <circle cx="8.8546019" cy="-8.6405191" r="0.40000001"/>
    <circle cx="-1.1409088" cy="-6.7753296" r="0.40000001"/>
    <circle cx="0.7841602" cy="-2.4411173" r="0.40000001"/>
    <circle cx="4.7897458" cy="-5.510128" r="0.40000001"/>
    <circle cx="2.7436073" cy="-4.788825" r="0.40000001"/>
    <circle cx="-2.2045708" cy="1.4039013" r="0.40000001"/>
    <circle cx="4.1208005" cy="-7.2579589" r="0.40000001"/>
    <circle cx="2.3553345" cy="-5.9541698" r="0.40000001"/>
    <circle cx="1.4241643" cy="-6.0919623" r="0.40000001"/>
    <circle cx="-2.5058429" cy="-4.3588715" r="0.40000001"/>
    <circle cx="3.6598639" cy="-8.7854156" r="0.40000001"/>
    <circle cx="5.3714871" cy="-3.5570533" r="0.40000001"/>
    <circle cx="5.0323663" cy="-2.6106355" r="0.40000001"/>
    <circle cx="-0.96065271" cy="-3.7015982" r="0.40000001"/>
    <circle cx="20.536825" cy="-47.179203" r="0.40000001"/>
    <circle cx="-11.991197" cy="-22.538048" r="0.40000001"/>
    <circle cx="20.301931" cy="44.782207" r="0.40000001"/>
    <circle cx="37.267239" cy="19.054094" r="0.40000001"/>
    <circle cx="28.693846" cy="15.150617" r="0.40000001"/>
    <circle cx="43.779793" cy="7.8432407" r="0.40000001"/>
    <circle cx="44.190456" cy="-0.035801996" r="0.40000001"/>
    <circle cx="-37.761227" cy="-41.361065" r="0.40000001"/>
    <circle cx="11.991112" cy="-14.485584" r="0.40000001"/>
    <circle cx="-52.32679" cy="0.44682649" r="0.40000001"/>
    <circle cx="27.414162" cy="29.813751" r="0.40000001"/>
    <circle cx="-50.776237" cy="-23.639048" r="0.40000001"/>
    <circle cx="17.469425" cy="10.069424" r="0.40000001"/>
    <circle cx="-44.418716" cy="-8.4066858" r="0.40000001"/>
    <circle cx="42.192459" cy="-11.819183" r="0.40000001"/>
    <circle cx="3.5406842" cy="44.081448" r="0.40000001"/>
    <circle cx="3.5362854" cy="4.528152" r="0.40000001"/>
    <circle cx="-20.932892" cy="28.028801" r="0.40000001"/>
    <circle cx="20.080482" cy="4.0972548" r="0.40000001"/>
    <circle cx="42.985207" cy="-9.571806" r="0.40000001"/>
    <circle cx="5.5257692" cy="-34.234573" r="0.40000001"/>
    <circle cx="29.070061" cy="11.576803" r="0.40000001"/>
    <circle cx="58.641769" cy="-40.653675" r="0.40000001"/>
    <circle cx="17.267328" cy="-45.022614" r="0.40000001"/>
    <circle cx="-16.736467" cy="-15.424737" r="0.40000001"/>
    <circle cx="-27.860912" cy="22.447363" r="0.40000001"/>
    <circle cx="-28.258629" cy="-5.4164958" r="0.40000001"/>
    <circle cx="37.241638" cy="34.462044" r="0.40000001"/>
    <circle cx="-28.98564" cy="21.60504" r="0.40000001"/>
    <circle cx="-1.6312231" cy="1.9354961" r="0.40000001"/>
  </g>
  <g transform="matrix(0.00650592,0,0,0.00650592,0.5,0.5)">
    <line y2="65.160164" x1="-60.183037" x2="37.121449" class="axis" y1="58.546028" style="stroke:#000000;stroke-width:0.2"/>
    <line y2="57.572983" x1="-60.24918" x2="-60.116898" class="axis-tick" y1="59.519073" style="stroke:#808080;stroke-width:0.2"/>
    <text x="-60.348389" y="60.993641" style="font-size:2px;text-anchor:middle;fill:#000000;font-family:'serif'">0</text>
    <line y2="58.234398" x1="-50.51873" x2="-50.386448" class="axis-tick" y1="60.180485" style="stroke:#808080;stroke-width:0.2"/>
    <text x="-50.617943" y="61.655052" style="font-size:2px;text-anchor:middle;fill:#000000;font-family:'serif'">0.1</text>
    <line y2="58.895809" x1="-40.78828" x2="-40.655998" class="axis-tick" y1="60.8419" style="stroke:#808080;stroke-width:0.2"/>
    <text x="-40.887493" y="62.316467" style="font-size:2px;text-anchor:middle;fill:#000000;font-family:'serif'">0.2</text>
    <line y2="59.557224" x1="-31.057833" x2="-30.92555" class="axis-tick" y1="61.503315" style="stroke:#808080;stroke-width:0.2"/>
    <text x="-31.157043" y="62.977882" style="font-size:2px;text-anchor:middle;fill:#000000;font-family:'serif'">0.3</text>
    <line y2="60.218639" x1="-21.327383" x2="-21.195101" class="axis-tick" y1="62.164726" style="stroke:#808080;stroke-width:0.2"/>
    <text x="-21.426596" y="63.639294" style="font-size:2px;text-anchor:middle;fill:#000000;font-family:'serif'">0.4</text>
    <line y2="60.880051" x1="-11.596935" x2="-11.464652" class="axis-tick" y1="62.826141" style="stroke:#808080;stroke-width:0.2"/>
    <text x="-11.696147" y="64.300705" style="font-size:2px;text-anchor:middle;fill:#000000;font-family:'serif'">0.5</text>
    <line y2="61.541466" x1="-1.8664862" x2="-1.7342035" class="axis-tick" y1="63.487556" style="stroke:#808080;stroke-width:0.2"/>
    <text x="-1.9656982" y="64.96212" style="font-size:2px;text-anchor:middle;fill:#000000;font-family:'serif'">0.6</text>
    <line y2="62.202881" x1="7.8639627" x2="7.9962454" class="axis-tick" y1="64.148972" style="stroke:#808080;stroke-width:0.2"/>
    <text x="7.7647505" y="65.623535" style="font-size:2px;text-anchor:middle;fill:#000000;font-family:'serif'">0.7</text>
    <line y2="62.864292" x1="17.594412" x2="17.726694" class="axis-tick" y1="64.810379" style="stroke:#808080;stroke-width:0.2"/>
    <text x="17.495199" y="66.28495" style="font-size:2px;text-anchor:middle;fill:#000000;font-family:'serif'">0.8</text>
    <line y2="63.525707" x1="27.32486" x2="27.457142" class="axis-tick" y1="65.471794" style="stroke:#808080;stroke-width:0.2"/>
    <text x="27.225647" y="66.946365" style="font-size:2px;text-anchor:middle;fill:#000000;font-family:'serif'">0.9</text>
    <line y2="64.187119" x1="37.055309" x2="37.187592" class="axis-tick" y1="66.133209" style="stroke:#808080;stroke-width:0.2"/>
    <text x="36.956097" y="67.60778" style="font-size:2px;text-anchor:middle;fill:#000000;font-family:'serif'">1</text>
    <text x="39.121449" y="67.160164" style="font-size:2.4000001px;text-anchor:start;fill:#000000;font-family:'serif'">Dim. 1</text>
    <line y2="-37.252922" x1="-60.183037" x2="-60.183037" class="axis" y1="58.546028" style="stroke:#000000;stroke-width:0.2"/>
    <line y2="58.546028" x1="-59.225048" x2="-61.141026" class="axis-tick" y1="58.546028" style="stroke:#808080;stroke-width:0.2"/>
    <text x="-62.578011" y="58.561028" style="font-size:2px;text-anchor:end;fill:#000000;font-family:'serif'">0</text>
    <line y2="48.966133" x1="-59.225048" x2="-61.141026" class="axis-tick" y1="48.966133" style="stroke:#808080;stroke-width:0.2"/>
    <text x="-62.578011" y="48.981133" style="font-size:2px;text-anchor:end;fill:#000000;font-family:'serif'">0.1</text>
    <line y2="39.386238" x1="-59.225048" x2="-61.141026" class="axis-tick" y1="39.386238" style="stroke:#808080;stroke-width:0.2"/>
    <text x="-62.578011" y="39.401237" style="font-size:2px;text-anchor:end;fill:#000000;font-family:'serif'">0.2</text>
    <line y2="29.806341" x1="-59.225048" x2="-61.141026" class="axis-tick" y1="29.806341" style="stroke:#808080;stroke-width:0.2"/>
    <text x="-62.578011" y="29.821342" style="font-size:2px;text-anchor:end;fill:#000000;font-family:'serif'">0.3</text>
    <line y2="20.226446" x1="-59.225048" x2="-61.141026" class="axis-tick" y1="20.226446" style="stroke:#808080;stroke-width:0.2"/>
    <text x="-62.578011" y="20.241447" style="font-size:2px;text-anchor:end;fill:#000000;font-family:'serif'">0.4</text>
    <line y2="10.646552" x1="-59.225048" x2="-61.141026" class="axis-tick" y1="10.646552" style="stroke:#808080;stroke-width:0.2"/>
    <text x="-62.578011" y="10.661551" style="font-size:2px;text-anchor:end;fill:#000000;font-family:'serif'">0.5</text>
    <line y2="1.0666567" x1="-59.225048" x2="-61.141026" class="axis-tick" y1="1.0666567" style="stroke:#808080;stroke-width:0.2"/>
    <text x="-62.578011" y="1.0816567" style="font-size:2px;text-anchor:end;fill:#000000;font-family:'serif'">0.6</text>
    <line y2="-8.513238" x1="-59.225048" x2="-61.141026" class="axis-tick" y1="-8.513238" style="stroke:#808080;stroke-width:0.2"/>
    <text x="-62.578011" y="-8.4982386" style="font-size:2px;text-anchor:end;fill:#000000;font-family:'serif'">0.7</text>
    <line y2="-18.093134" x1="-59.225048" x2="-61.141026" class="axis-tick" y1="-18.093134" style="stroke:#808080;stroke-width:0.2"/>
    <text x="-62.578011" y="-18.078133" style="font-size:2px;text-anchor:end;fill:#000000;font-family:'serif'">0.8</text>
    <line y2="-27.673029" x1="-59.225048" x2="-61.141026" class="axis-tick" y1="-27.673029" style="stroke:#808080;stroke-width:0.2"/>
    <text x="-62.578011" y="-27.65803" style="font-size:2px;text-anchor:end;fill:#000000;font-family:'serif'">0.9</text>
    <line y2="-37.252922" x1="-59.225048" x2="-61.141026" class="axis-tick" y1="-37.252922" style="stroke:#808080;stroke-width:0.2"/>
    <text x="-62.578011" y="-37.237923" style="font-size:2px;text-anchor:end;fill:#000000;font-family:'serif'">1</text>
    <text x="-62.183037" y="-39.252922" style="font-size:2.4000001px;text-anchor:end;fill:#000000;font-family:'serif'">Dim. 2</text>
    <line y2="30.638786" x1="-60.183037" x2="-37.121449" class="axis" y1="58.546028" style="stroke:#000000;stroke-width:0.2"/>
    <line y2="58.315411" x1="-59.903965" x2="-60.462109" class="axis-tick" y1="58.776642" style="stroke:#808080;stroke-width:0.2"/>
    <text x="-60.880718" y="57.984489" style="font-size:2px;text-anchor:end;fill:#000000;font-family:'serif'">0</text>
    <line y2="55.524689" x1="-57.597805" x2="-58.155952" class="axis-tick" y1="55.98592" style="stroke:#808080;stroke-width:0.2"/>
    <text x="-58.574558" y="55.193764" style="font-size:2px;text-anchor:end;fill:#000000;font-family:'serif'">0.1</text>
    <line y2="52.733963" x1="-55.291649" x2="-55.849792" class="axis-tick" y1="53.195194" style="stroke:#808080;stroke-width:0.2"/>
    <text x="-56.268402" y="52.403038" style="font-size:2px;text-anchor:end;fill:#000000;font-family:'serif'">0.2</text>
    <line y2="49.943237" x1="-52.985489" x2="-53.543633" class="axis-tick" y1="50.404472" style="stroke:#808080;stroke-width:0.2"/>
    <text x="-53.962242" y="49.612316" style="font-size:2px;text-anchor:end;fill:#000000;font-family:'serif'">0.3</text>
    <line y2="47.152515" x1="-50.679329" x2="-51.237476" class="axis-tick" y1="47.613747" style="stroke:#808080;stroke-width:0.2"/>
    <text x="-51.656082" y="46.82159" style="font-size:2px;text-anchor:end;fill:#000000;font-family:'serif'">0.4</text>
    <line y2="44.36179" x1="-48.373173" x2="-48.931316" class="axis-tick" y1="44.823021" style="stroke:#808080;stroke-width:0.2"/>
    <text x="-49.349926" y="44.030869" style="font-size:2px;text-anchor:end;fill:#000000;font-family:'serif'">0.5</text>
    <line y2="41.571068" x1="-46.067013" x2="-46.625156" class="axis-tick" y1="42.032299" style="stroke:#808080;stroke-width:0.2"/>
    <text x="-47.043766" y="41.240143" style="font-size:2px;text-anchor:end;fill:#000000;font-family:'serif'">0.6</text>
    <line y2="38.780342" x1="-43.760853" x2="-44.319" class="axis-tick" y1="39.241573" style="stroke:#808080;stroke-width:0.2"/>
    <text x="-44.737606" y="38.449417" style="font-size:2px;text-anchor:end;fill:#000000;font-family:'serif'">0.7</text>
    <line y2="35.98962" x1="-41.454697" x2="-42.01284" class="axis-tick" y1="36.450851" style="stroke:#808080;stroke-width:0.2"/>
    <text x="-42.43145" y="35.658695" style="font-size:2px;text-anchor:end;fill:#000000;font-family:'serif'">0.8</text>
    <line y2="33.198895" x1="-39.148537" x2="-39.70668" class="axis-tick" y1="33.660126" style="stroke:#808080;stroke-width:0.2"/>
    <text x="-40.12529" y="32.86797" style="font-size:2px;text-anchor:end;fill:#000000;font-family:'serif'">0.9</text>
    <line y2="30.408171" x1="-36.842377" x2="-37.400524" class="axis-tick" y1="30.869402" style="stroke:#808080;stroke-width:0.2"/>
    <text x="-37.81913" y="30.077246" style="font-size:2px;text-anchor:end;fill:#000000;font-family:'serif'">1</text>
    <text x="-39.121449" y="28.638786" style="font-size:2.4000001px;text-anchor:end;fill:#000000;font-family:'serif'">Dim. 3</text>
  </g>
  <g transform="matrix(0.00650592,0,0,0.00650592,0.5,0.5)">
    <path d="m -56.892255,55.233338 94.376607,6.415119 m -94.376607,-6.415119 0,-91.895289 m 0,91.895289 21.670742,-26.224154 m 72.705865,32.639273 0,-91.895288 m 0,91.895288 21.670741,-26.224154 M 37.484352,-30.246831 59.155093,-56.470985 m 0,91.895288 0,-91.895288 m -116.047348,19.809034 94.376607,6.41512 m -94.376607,-6.41512 21.670742,-26.224154 m 0,0 94.376606,6.41512 m -94.376606,85.480169 94.376606,6.415119 m -94.376606,-6.415119 0,-91.895289" style="fill:none;stroke:#ff0000;stroke-width:0.5"/>
    <path d="m -45.050532,52.862461 70.493999,4.791732 m -70.493999,-4.791732 0,-25.015562 m 0,25.015562 11.79817,-14.277179 m 58.695829,19.068911 0,-25.015562 m 0,25.015562 11.79817,-14.277179 M 25.443467,32.638631 37.241637,18.361453 m 0,25.015561 0,-25.015561 m -82.292169,9.485446 70.493999,4.791732 m -70.493999,-4.791732 11.79817,-14.277178 m 0,0 70.493999,4.791732 m -70.493999,20.223829 70.493999,4.791732 m -70.493999,-4.791732 0,-25.015561" style="fill:none;stroke:#0000ff;stroke-width:0.25"/>
    <path d="m -56.800903,29.70408 39.539363,2.687634 m -39.539363,-2.687634 0,-60.912964 m 0,60.912964 11.667912,-14.11955 m 27.871451,16.807184 0,-60.912964 m 0,60.912964 11.667912,-14.119551 M -17.26154,-28.52125 -5.593628,-42.6408 m 0,60.912963 0,-60.912963 m -51.207275,11.431916 39.539363,2.687634 m -39.539363,-2.687634 11.667912,-14.11955 m 0,0 39.539363,2.687634 m -39.539363,58.22533 39.539363,2.687633 m -39.539363,-2.687633 0,-60.912964" style="fill:none;stroke:#0000ff;stroke-width:0.25"/>
    <path d="M -0.55297101,22.171938 37.484352,24.757472 m -38.03732301,-2.585534 0,-39.702186 m 0,39.702186 7.05946531,-8.542786 m 30.9778577,11.12832 0,-39.702186 m 0,39.702186 7.059465,-8.542786 m -7.059465,-31.1594 7.059465,-8.542786 m 0,39.702186 0,-39.702186 m -45.09678801,5.957252 38.03732301,2.585534 m -38.03732301,-2.585534 7.05946531,-8.542786 m 0,0 38.0373227,2.585534 M 6.5064943,13.629152 44.543817,16.214686 m -38.0373227,-2.585534 0,-39.702186" style="fill:none;stroke:#0000ff;stroke-width:0.25"/>
    <path d="m -5.603588,7.6334533 44.680482,3.0370937 m -44.680482,-3.0370937 0,-48.3336083 m 0,48.3336083 6.32238595,-7.65083297 M 39.076894,10.670547 l 0,-48.333608 m 0,48.333608 6.322386,-7.6508328 m -6.322386,-40.6827752 6.322386,-7.650833 m 0,48.3336082 0,-48.3336082 m -51.002868,4.613739 44.680482,3.037094 m -44.680482,-3.037094 6.32238595,-7.650833 m 0,0 44.68048205,3.037094 M 0.71879795,-0.01737967 45.39928,3.0197142 m -44.68048205,-3.03709387 0,-48.33360833" style="fill:none;stroke:#0000ff;stroke-width:0.25"/>
    <path d="m -20.932891,28.0288 30.0294404,2.04121 m -30.0294404,-2.04121 0,-32.0094764 m 0,32.0094764 1.930438,-2.336058 m 28.0990024,4.377268 0,-32.0094768 m 0,32.0094768 1.9304376,-2.336058 M 9.0965494,-1.9394668 11.026987,-4.2755246 m 0,32.0094766 0,-32.0094766 m -31.959878,0.2948482 30.0294404,2.0412096 m -30.0294404,-2.0412096 1.930438,-2.3360578 m 0,0 30.02944,2.0412096 m -30.02944,29.9682666 30.02944,2.04121 m -30.02944,-2.04121 0,-32.0094762" style="fill:none;stroke:#0000ff;stroke-width:0.25"/>
    <path d="m -29.483477,23.540203 85.387953,5.804128 m -85.387953,-5.804128 0,-72.501568 m 0,72.501568 2.737292,-3.312445 m 82.650661,9.116573 0,-72.501568 m 0,72.501568 2.737292,-3.312446 m -2.737292,-69.189122 2.737292,-3.312446 m 0,72.501568 0,-72.501568 m -88.125245,-2.491682 85.387953,5.804128 m -85.387953,-5.804128 2.737292,-3.312445 m 0,0 85.387953,5.804127 m -85.387953,66.697441 85.387953,5.804127 m -85.387953,-5.804127 0,-72.501568" style="fill:none;stroke:#0000ff;stroke-width:0.25"/>
    <path d="m 13.692759,-18.493969 22.47498,1.527706 m -22.47498,-1.527706 0,-15.253839 m 0,15.253839 5.813535,-7.035064 m 16.661445,8.56277 0,-15.25384 m 0,15.25384 5.813536,-7.035064 m -5.813536,-8.218776 5.813536,-7.035064 m 0,15.25384 0,-15.25384 m -28.288516,5.507359 22.47498,1.527705 m -22.47498,-1.527705 5.813535,-7.035065 m 0,0 22.474981,1.527706 m -22.474981,13.726134 22.474981,1.527706 m -22.474981,-1.527706 0,-15.25384" style="fill:none;stroke:#0000ff;stroke-width:0.25"/>
    <path d="M -11.991197,-0.40457172 13.906826,1.3558105 m -25.898023,-1.76038222 0,-42.31182128 m 0,42.31182128 4.5415159,-5.49577018 m 21.3565071,7.2561524 0,-42.3118215 m 0,42.3118215 4.541516,-5.4957701 m -4.541516,-36.8160514 4.541516,-5.49577 m 0,42.3118214 0,-42.3118214 m -30.439539,3.735388 25.898023,1.760382 m -25.898023,-1.760382 4.5415159,-5.49577 m 0,0 25.8980231,1.760382 M -7.4496811,-5.9003419 18.448342,-4.1399596 m -25.8980231,-1.7603823 0,-42.3118211" style="fill:none;stroke:#0000ff;stroke-width:0.25"/>
  </g>
</svg>
